
<svg xmlns="http://www.w3.org/2000/svg" version="1.1" xmlns:xlink="http://www.w3.org/1999/xlink" preserveAspectRatio="none" x="0px" y="0px" width="256px" height="256px" viewBox="0 0 256 256">
<defs>
<g id="Layer2_0_FILL">
<path fill="#36465A" stroke="none" d="
M 230.5 101.5
L 215 133 180 157 161.5 134.45 164.5 107.5 149.5 79.5 138.5 18.5 127.5 20.5 127.5 207.5 133.5 207.5 133.5 219.5 145.5 219.5 144.5 207.5 147.5 207.5 159.5 215.5 159.5 246.5 230.5 188.5 230.5 101.5 Z"/>
</g>

<g id="Layer1_0_FILL">
<path fill="#26333E" stroke="none" d="
M 153.65 49.4
L 143.55 46.35 145.8 58.9 163.9 61.45 159.4 32.1 153.65 49.4
M 142.5 113.5
L 161.5 134.45 164.5 107.5 149.5 79.5 142.5 113.5
M 180 157
L 186 182 161 179 147.5 207.5 159.5 215.5 201.5 190.5 215 133 180 157 Z"/>

<path fill="#6E6E6B" stroke="none" d="
M 145.5 219.5
L 144.5 207.5 133.5 207.5 133.5 219.5 145.5 219.5 Z"/>

<path fill="#666666" stroke="none" d="
M 137 126
L 127.5 123.5 127.5 188.5 141 191 150.5 155.5 137 126 Z"/>

<path fill="#B3B3AF" stroke="none" d="
M 135.5 86.5
L 135.5 53.5 127.5 45.5 127.5 90.5 135.5 86.5 Z"/>
</g>

<path id="Layer1_0_1_STROKES" stroke="#F9AC35" stroke-width="3" stroke-linejoin="round" stroke-linecap="round" fill="none" d="
M 159.5 246.5
L 230.5 188.5 230.5 101.5
M 145.8 58.9
L 163.9 61.45 159.4 32.1"/>
</defs>

<g transform="matrix( 1, 0, 0, 1, 0,0) ">
<use xlink:href="#Layer2_0_FILL"/>
</g>

<g transform="matrix( 1, 0, 0, 1, 0,0) ">
<use xlink:href="#Layer1_0_FILL"/>

<use xlink:href="#Layer1_0_1_STROKES"/>
</g>
</svg>
