
<svg xmlns="http://www.w3.org/2000/svg" version="1.1" xmlns:xlink="http://www.w3.org/1999/xlink" preserveAspectRatio="none" x="0px" y="0px" width="256px" height="256px" viewBox="0 0 256 256">
<defs>
<g id="Layer2_0_FILL">
<path fill="#36465A" stroke="none" d="
M 189.5 84.5
L 180.5 88.5 171.5 109.5 147.45 116.35 139.5 81.5 142.5 61.5 127.5 40.5 127.5 234.5 146.5 240.5 139.5 218.6 140.5 208.5 183.5 245.5 223.5 207.5 220.5 159.5 205.5 175.5 177.35 188.25 154.5 140.5 184.5 120.5 189.5 84.5 Z"/>
</g>

<g id="Layer1_0_FILL">
<path fill="#26333E" stroke="none" d="
M 151.5 174.5
L 134.05 138.65 127.5 152.5 127.5 209.25 139.5 218.6 140.5 208.5 151.5 174.5
M 184.5 120.5
L 189.5 84.5 178.5 115.5 150.85 128.05 154.5 140.5 184.5 120.5
M 220.5 159.5
L 205.5 175.5 203.5 226.5 223.5 207.5 220.5 159.5 Z"/>

<path fill="#B3B3AF" stroke="none" d="
M 134.05 138.65
L 136.5 133.5 136.5 109.5 127.5 89.5 127.5 152.5 134.05 138.65 Z"/>

<path fill="#666666" stroke="none" d="
M 139.5 218.6
L 127.5 209.25 127.5 234.5 146.5 240.5 139.5 218.6
M 127.5 69.5
L 142.5 61.5 127.5 40.5 127.5 69.5
M 205.5 175.5
L 170.5 191.5 170.5 209.5 183.5 221.5 183.5 245.5 203.5 226.5 205.5 175.5 Z"/>
</g>

<path id="Layer1_0_1_STROKES" stroke="#F9AC35" stroke-width="3" stroke-linejoin="round" stroke-linecap="round" fill="none" d="
M 203.5 226.5
L 223.5 207.5 220.5 159.5
M 183.5 245.5
L 203.5 226.5
M 154.5 140.5
L 184.5 120.5 189.5 84.5"/>
</defs>

<g transform="matrix( 1, 0, 0, 1, 0,0) ">
<use xlink:href="#Layer2_0_FILL"/>
</g>

<g transform="matrix( 1, 0, 0, 1, 0,0) ">
<use xlink:href="#Layer1_0_FILL"/>

<use xlink:href="#Layer1_0_1_STROKES"/>
</g>
</svg>
