
<svg xmlns="http://www.w3.org/2000/svg" version="1.1" xmlns:xlink="http://www.w3.org/1999/xlink" preserveAspectRatio="none" x="0px" y="0px" width="256px" height="256px" viewBox="0 0 256 256">
<defs>
<g id="Layer2_0_FILL">
<path fill="#36465A" stroke="none" d="
M 202 68
L 190.5 60.5 190.9 122.15 191.15 122.6 158.5 130.5 152.5 121.5 148.5 78.5 140.75 74.05 138.5 51.5 127.5 40.5 127.5 198.5 138.5 198.5 143.3 182.1 143.5 182.5 167.7 177.05 192.2 172.75 192.5 184.5 197.5 197.5 210.5 197.5 215.5 184.5 215.5 168.35 225.5 166.5 251.5 108.5 215.5 117 206.5 112.5 202 68 Z"/>
</g>

<g id="Layer1_0_FILL">
<path fill="#26333E" stroke="none" d="
M 127.5 65.5
L 134.5 70.5 135.5 88.5 127.5 94.5 127.5 139.5 144.5 111.5 138.5 51.5 127.5 40.5 127.5 65.5
M 138.5 172.5
L 138.5 157.5 127.5 152.5 127.5 181.5 138.5 172.5
M 233.35 112.8
L 215.5 117 191.15 122.6 158.5 130.5 143.3 182.1 143.5 182.5 167.7 177.05 174.5 160.5 218.5 150.5 233.35 112.8
M 192.5 184.5
L 197.5 197.5 210.5 197.5 215.5 184.5 192.5 184.5 Z"/>

<path fill="#B3B3AF" stroke="none" d="
M 134.5 70.5
L 127.5 65.5 127.5 94.5 135.5 88.5 134.5 70.5 Z"/>

<path fill="#666666" stroke="none" d="
M 143.3 182.1
L 138.5 172.5 127.5 181.5 127.5 198.5 138.5 198.5 143.3 182.1
M 192.2 172.75
L 192.5 184.5 215.5 184.5 215.5 168.35 192.2 172.75 Z"/>
</g>

<path id="Layer1_0_1_STROKES" stroke="#F9AC35" stroke-width="3" stroke-linejoin="round" stroke-linecap="round" fill="none" d="
M 191.15 122.6
L 190.9 122.175 190.5 60.5 202 68 206.5 112.5 215.5 117.025"/>
</defs>

<g transform="matrix( 1, 0, 0, 1, 0,0) ">
<use xlink:href="#Layer2_0_FILL"/>
</g>

<g transform="matrix( 1, 0, 0, 1, 0,0) ">
<use xlink:href="#Layer1_0_FILL"/>

<use xlink:href="#Layer1_0_1_STROKES"/>
</g>
</svg>
