
<svg xmlns="http://www.w3.org/2000/svg" version="1.1" xmlns:xlink="http://www.w3.org/1999/xlink" preserveAspectRatio="none" x="0px" y="0px" width="256px" height="256px" viewBox="0 0 256 256">
<defs>
<g id="Layer2_0_FILL">
<path fill="#36465A" stroke="none" d="
M 171.5 24.5
L 170.4 31.5 164 105 163 120 154.5 116.5 143.5 99.5 137.5 58.5 127 45 127 248 142 248 139.5 239.5 148.5 235.5 164.5 247.5 207.5 223.5 226 200 218 160 191.5 184.5 156.5 159.5 216.5 138.9 223.5 104 198.2 116.35 185.5 15.5 171.5 24.5 Z"/>
</g>

<g id="Layer1_0_FILL">
<path fill="#26333E" stroke="none" d="
M 154.5 116.5
L 143.5 99.5 143.5 143.5 156.5 159.5 154.5 116.5
M 175.5 35.5
L 170.4 31.5 164 105 180.5 100.5 175.5 35.5
M 191.5 217.5
L 175.5 207.5 148.5 235.5 191.5 217.5
M 139.5 239.5
L 127 240 127 248 142 248 139.5 239.5
M 127 59
L 137.5 58.5 127 45 127 59
M 191.5 184.5
L 199.5 191.5 218 160 191.5 184.5 Z"/>

<path fill="#666666" stroke="none" d="
M 139 163
L 127 160 127 224 140 220 153 192 139 163 Z"/>

<path fill="#B3B3AF" stroke="none" d="
M 127 135
L 135.5 127.5 135.5 111.5 127 105 127 135 Z"/>
</g>

<path id="Layer1_0_1_STROKES" stroke="#F9AC35" stroke-width="3" stroke-linejoin="round" stroke-linecap="round" fill="none" d="
M 185.5 15.5
L 198.2 116.35 223.5 104 216.5 138.9"/>
</defs>

<g transform="matrix( 1, 0, 0, 1, 0,0) ">
<use xlink:href="#Layer2_0_FILL"/>
</g>

<g transform="matrix( 1, 0, 0, 1, 0,0) ">
<use xlink:href="#Layer1_0_FILL"/>

<use xlink:href="#Layer1_0_1_STROKES"/>
</g>
</svg>
