
<svg xmlns="http://www.w3.org/2000/svg" version="1.1" xmlns:xlink="http://www.w3.org/1999/xlink" preserveAspectRatio="none" x="0px" y="0px" width="256px" height="256px" viewBox="0 0 256 256">
<defs>
<g id="Layer2_0_FILL">
<path fill="#999999" stroke="none" d="
M 50 89
L 81 116 215 106 145.6 42.1 50 89 Z"/>

<path fill="#333333" stroke="none" d="
M 209.5 110.25
Q 208.626953125 110.978125 207.75 111.65 197.240234375 120.0537109375 186.7 128.4 172.6109375 139.4583984375 158.5 150.5
L 57.7 164.3 180.1 177.65 180.65 177.55 180.8 177.75 215 106 209.5 110.25 Z"/>

<path fill="#666666" stroke="none" d="
M 207.75 111.65
Q 208.626953125 110.978125 209.5 110.25
L 215 106 81 116 56.85 164.2 57.7 164.3 158.5 150.5
Q 172.6109375 139.4583984375 186.7 128.4 197.240234375 120.0537109375 207.75 111.65 Z"/>

<path fill="#CCCCCC" stroke="none" d="
M 81 116
L 50 89 56.85 164.2 81 116 Z"/>
</g>
</defs>

<g transform="matrix( 1, 0, 0, 1, 0,0) ">
<use xlink:href="#Layer2_0_FILL"/>
</g>
</svg>
