
<svg xmlns="http://www.w3.org/2000/svg" version="1.1" xmlns:xlink="http://www.w3.org/1999/xlink" preserveAspectRatio="none" x="0px" y="0px" width="256px" height="256px" viewBox="0 0 256 256">
<defs>
<g id="Layer2_0_FILL">
<path fill="#999999" stroke="none" d="
M 96.5 129.5
L 96.5 95.5 52.5 82.5 57.5 175.5 96.5 129.5
M 169.5 121.5
L 235.5 131.5 155.5 57.5 169.5 121.5 Z"/>

<path fill="#666666" stroke="none" d="
M 139.5 157.5
L 96.5 129.5 57.5 175.5 124.5 200.5 139.5 157.5 Z"/>

<path fill="#CCCCCC" stroke="none" d="
M 96.5 95.5
L 155.5 57.5 112.5 45.5 52.5 82.5 96.5 95.5 Z"/>

<path fill="#918C8C" stroke="none" d="
M 155.5 57.5
L 96.5 95.5 96.5 129.5 139.5 157.5 169.5 121.5 155.5 57.5 Z"/>

<path fill="#333333" stroke="none" d="
M 235.5 131.5
L 169.5 121.5 139.5 157.5 124.5 200.5 235.5 131.5 Z"/>
</g>
</defs>

<g transform="matrix( 1, 0, 0, 1, 0,0) ">
<use xlink:href="#Layer2_0_FILL"/>
</g>
</svg>
